<svg width="151" height="31" fill="none" xmlns="http://www.w3.org/2000/svg"><path d="M52.1 15h-3.02V3.24h-3.5a2407.14 2407.14 0 0 0-.54 4.2 66.07 66.07 0 0 1-.62 3.84c-.17.83-.4 1.53-.7 2.12a3.06 3.06 0 0 1-1.18 1.34c-.5.3-1.14.46-1.94.46-.52 0-1-.07-1.44-.22V12.5l.5.14c.17.04.36.06.56.06.39 0 .68-.2.88-.6a9.6 9.6 0 0 0 .64-2.3A176.19 176.19 0 0 0 43.08.72h9.02V15ZM55.7.72h2.72v6.9a34.85 34.85 0 0 1-.06 2.34 91.95 91.95 0 0 1-.08 1.6h.06L64.94.72h3.62V15h-2.7V8.14a38.09 38.09 0 0 1 .06-2.44l.06-1.04.06-.6h-.08L59.34 15H55.7V.72Zm25.49 0v2.5h-6V15h-3.02V.72h9.02ZM90.7 15l-1.04-3.4h-5.2L83.43 15h-3.26L85.21.66h3.7L93.97 15h-3.26Zm-1.76-5.94-1.04-3.32a76.77 76.77 0 0 0-.58-1.92c-.1-.36-.2-.67-.26-.94-.06.27-.16.6-.28 1a62.53 62.53 0 0 1-.54 1.86l-1.02 3.32h3.72ZM101.5 15V.72h9.02v2.5h-6V6.2h1.2a8.3 8.3 0 0 1 3.3.56c.87.37 1.51.89 1.92 1.54.42.65.62 1.4.62 2.24 0 1.41-.47 2.51-1.42 3.3-.93.77-2.42 1.16-4.48 1.16h-4.16Zm3.02-2.48h1.02c.92 0 1.64-.15 2.16-.44.54-.3.8-.8.8-1.54 0-.76-.28-1.26-.86-1.5a6.2 6.2 0 0 0-2.34-.36h-.78v3.84Zm13.98-8.66c1.46 0 2.58.32 3.36.96.78.63 1.18 1.6 1.18 2.9V15h-2.08l-.58-1.48h-.08a4.65 4.65 0 0 1-1.48 1.28c-.52.27-1.24.4-2.14.4-.98 0-1.78-.28-2.42-.84-.64-.57-.96-1.45-.96-2.62 0-1.16.4-2.01 1.22-2.56.81-.56 2.03-.87 3.66-.92l1.9-.06v-.48c0-.57-.16-1-.46-1.26-.3-.27-.71-.4-1.24-.4-.54 0-1.06.08-1.56.24-.51.15-1.02.33-1.52.56l-.98-2.02c.58-.3 1.23-.55 1.94-.72a9.54 9.54 0 0 1 2.24-.26Zm1.58 6.08-1.16.04c-.96.03-1.63.2-2 .52-.38.32-.56.74-.56 1.26 0 .45.13.78.4.98.26.19.61.28 1.04.28.64 0 1.18-.19 1.62-.56.44-.39.66-.93.66-1.62v-.9Zm8.99-5.86v4.2h4.16v-4.2h2.98V15h-2.98v-4.5h-4.16V15h-2.98V4.08h2.98Zm17.42 0h3.28l-4.32 5.24 4.7 5.68h-3.38l-4.46-5.54V15h-2.98V4.08h2.98v5.3l4.18-5.3ZM43.92 21.66h1.09V28h-1.09v-4.62L41 28H39.9v-6.34H41v4.63l2.92-4.63Zm8 6.34h-1.08v-2.7h-2.91V28h-1.09v-6.34h1.09v2.75h2.91v-2.75h1.09V28Zm6.46-5.46h-2.12V28h-1.09v-5.46H53.1v-.88h5.3v.88Zm3.22 5.58c-.86 0-1.56-.28-2.1-.85a3.15 3.15 0 0 1-.8-2.26v-.2c0-.63.11-1.2.35-1.68.24-.5.58-.89 1-1.17.44-.28.91-.42 1.41-.42.83 0 1.47.27 1.93.82.45.54.68 1.32.68 2.33v.45h-4.3c.02.63.2 1.13.55 1.52.35.38.8.57 1.34.57.38 0 .7-.08.97-.23.27-.16.5-.37.7-.62l.66.51a2.66 2.66 0 0 1-2.39 1.23Zm-.14-5.69c-.43 0-.8.16-1.1.48-.3.32-.48.77-.55 1.34H63v-.08a2.05 2.05 0 0 0-.45-1.28c-.26-.3-.62-.46-1.08-.46Zm9.23 2.47a3.8 3.8 0 0 1-.66 2.33c-.45.6-1.04.89-1.8.89-.77 0-1.37-.25-1.81-.74v3.06h-1.09v-8.78h1l.05.7a2.23 2.23 0 0 1 1.83-.82c.77 0 1.37.29 1.8.86.45.58.68 1.38.68 2.4v.1Zm-1.09-.12a2.8 2.8 0 0 0-.45-1.7c-.3-.41-.73-.62-1.26-.62-.65 0-1.15.3-1.47.88v3.03c.32.57.82.86 1.48.86.52 0 .94-.2 1.24-.61.3-.42.46-1.03.46-1.84ZM77.25 28h-1.08v-2.7h-2.92V28h-1.09v-6.34h1.1v2.75h2.9v-2.75h1.09V28Zm4.38.12c-.86 0-1.56-.28-2.1-.85a3.15 3.15 0 0 1-.8-2.26v-.2c0-.63.11-1.2.35-1.68.24-.5.58-.89 1-1.17.44-.28.9-.42 1.41-.42.83 0 1.47.27 1.92.82.46.54.69 1.32.69 2.33v.45h-4.3c.02.63.2 1.13.55 1.52.35.38.8.57 1.34.57.38 0 .7-.08.97-.23.26-.16.5-.37.7-.62l.66.51a2.66 2.66 0 0 1-2.4 1.23Zm-.14-5.69c-.44 0-.8.16-1.1.48-.3.32-.48.77-.55 1.34h3.18v-.08a2.05 2.05 0 0 0-.45-1.28c-.27-.3-.62-.46-1.08-.46Zm8.51.1h-2.13V28H86.8v-5.46H84.7v-.88H90v.88Zm3.31 2.29h-2.86v-.89h2.86v.89Zm3.84-2.8c.8 0 1.44.27 1.91.8.48.54.73 1.24.73 2.11v.1c0 .6-.12 1.13-.35 1.6-.23.47-.56.84-1 1.1-.43.26-.92.39-1.48.39-.86 0-1.54-.29-2.06-.85a3.27 3.27 0 0 1-.78-2.3v-.52c0-1.33.25-2.4.74-3.18a3.12 3.12 0 0 1 2.19-1.43c.55-.1.91-.22 1.1-.36.2-.14.3-.33.3-.58h.88c0 .49-.1.87-.33 1.14-.22.28-.57.47-1.05.58l-.81.18c-.65.16-1.13.41-1.46.78-.32.36-.53.84-.62 1.44.57-.66 1.27-1 2.1-1Zm-.2.9c-.54 0-.96.17-1.27.53-.31.36-.47.85-.47 1.49v.09c0 .68.16 1.22.47 1.62.31.4.74.59 1.28.59.53 0 .96-.2 1.27-.6.31-.4.47-.98.47-1.75 0-.6-.16-1.07-.47-1.43a1.6 1.6 0 0 0-1.29-.55Zm7.97 5.08a2.26 2.26 0 0 1-.15-.67c-.5.53-1.11.79-1.8.79-.63 0-1.15-.18-1.55-.53-.4-.36-.6-.8-.6-1.35 0-.66.25-1.17.75-1.53.5-.37 1.21-.55 2.12-.55h1.06v-.5c0-.38-.11-.68-.34-.9-.23-.23-.56-.34-1-.34-.39 0-.72.1-.98.29-.26.2-.39.43-.39.7h-1.09c0-.3.11-.61.33-.9.23-.3.54-.54.92-.7a3.1 3.1 0 0 1 1.27-.27c.73 0 1.3.19 1.72.55.41.37.63.87.64 1.51v2.92c0 .58.08 1.04.23 1.39V28h-1.14Zm-1.8-.83c.34 0 .66-.08.97-.26.3-.18.52-.4.66-.69v-1.3h-.85c-1.33 0-2 .4-2 1.17 0 .34.12.6.35.8.22.19.51.28.87.28Zm9.6.83h-1.1v-2.7h-2.9V28h-1.1v-6.34h1.1v2.75h2.9v-2.75h1.1V28Zm3.71-2.7h-.79V28h-1.09v-6.34h1.1v2.68h.7l2.13-2.68h1.31l-2.5 3.05L120 28h-1.38l-2.2-2.7Z" fill="#1F1E25"/><path d="M17.88 1h-3.13L1 24.05h4.06l1.88-3.3L17.87 1Z" fill="#2C36F2"/><path d="M2.88 28h26.25L17.88 7.59 16 10.88l5.63 9.88 1.87 3.29H1L2.88 28Z" fill="#2C36F2"/><path d="m23.5 24.05-1.88-3.3H6.95l-1.88 3.3H23.5Z" fill="#2C36F2"/><path d="M29.13 28 31 24.05 17.87 1 6.95 20.76h3.43L16 10.88l1.88-3.3L29.13 28Z" fill="#2C36F2"/><path d="m16 10.88-5.63 9.88h11.26L16 10.88Z" fill="#2C36F2"/><path d="M29.13 28H2.88L1 24.05M29.13 28 31 24.05 17.87 1m11.25 27L17.88 7.59 16 10.88M17.88 1h-3.13L1 24.05M17.88 1 6.94 20.76M1 24.05h4.06M16 10.88l-5.63 9.88M16 10.88l5.63 9.88m-11.25 0h11.24m-11.25 0H6.95m14.68 0 1.88 3.29H5.06m1.88-3.3-1.88 3.3" stroke="#F6F7FF"/></svg>