<svg width="34" height="30" fill="none" xmlns="http://www.w3.org/2000/svg"><path d="M32.7 4.4 11.88.04a1.64 1.64 0 0 0-1.94 1.25l-.4 2.51 24.03 5.03.4-2.51A1.63 1.63 0 0 0 32.7 4.4ZM23.95 9.37a1.66 1.66 0 0 0-2.04-1.14l-3.95 1.09-9.32-1.96-1.03 4.8-6.4 1.76a1.64 1.64 0 0 0-1.15 2l3.6 12.88a1.66 1.66 0 0 0 2.04 1.14l20.7-5.69a1.64 1.64 0 0 0 1.15-2l-.62-2.22 2.33.49c.88.18 1.75-.38 1.94-1.25l1.47-6.87-8.37-1.76-.35-1.27Zm2.39 6.54.5-2.4a.68.68 0 0 1 .8-.5l2.43.5c.36.07.6.43.52.79l-.52 2.4a.68.68 0 0 1-.8.5l-2.41-.5a.67.67 0 0 1-.52-.79Zm-24.77-.7 20.7-5.7a.31.31 0 0 1 .38.21l.7 2.52L2.06 18.1l-.7-2.52a.3.3 0 0 1 .21-.37Zm24.69 7.39a.3.3 0 0 1-.03.23.3.3 0 0 1-.19.14l-20.7 5.69a.31.31 0 0 1-.38-.21l-2.1-7.51 21.3-5.85 2.1 7.5Z" fill="#565EF5"/><path d="M8.69 23.11a.68.68 0 0 0-.83-.46l-2.42.66a.67.67 0 0 0-.47.82l.67 2.4c.1.35.48.56.83.46l2.42-.67c.36-.1.57-.46.47-.82l-.67-2.39Z" fill="#565EF5"/></svg>