<svg width="134" height="24" fill="none" xmlns="http://www.w3.org/2000/svg"><path d="M44.79 23h-2.72V12.42h-3.15a2303.6 2303.6 0 0 0-.75 5.67c-.1.58-.2 1.1-.3 1.56a7.9 7.9 0 0 1-.62 1.91c-.25.53-.6.93-1.06 1.2-.45.28-1.03.42-1.75.42-.47 0-.9-.07-1.3-.2v-2.23l.45.13c.16.03.33.05.5.05.36 0 .62-.18.8-.54.2-.37.38-1.06.58-2.07l.3-1.8a159.1 159.1 0 0 0 .9-6.37h8.12V23Zm3.24-12.85h2.45v6.2a31.54 31.54 0 0 1-.05 2.11 85.07 85.07 0 0 1-.08 1.44h.06l5.94-9.75h3.26V23h-2.43v-6.17a34.18 34.18 0 0 1 .05-2.2l.05-.94.06-.54h-.07L51.3 23h-3.28V10.15Zm22.94 0v2.25h-5.4V23h-2.72V10.15h8.12ZM79.54 23l-.94-3.06h-4.68L73 23h-2.94l4.54-12.9h3.33L82.47 23h-2.93Zm-1.58-5.35-.94-2.98a67.23 67.23 0 0 0-.52-1.73c-.1-.33-.18-.6-.24-.85l-.25.9a55.55 55.55 0 0 1-.48 1.68l-.92 2.98h3.35ZM89.26 23V10.15h8.11v2.25h-5.4v2.68h1.08c1.21 0 2.2.17 2.97.5.78.34 1.36.8 1.73 1.39.37.59.56 1.26.56 2.02 0 1.27-.43 2.26-1.28 2.97-.84.7-2.19 1.04-4.03 1.04h-3.75Zm2.71-2.23h.92c.83 0 1.47-.13 1.94-.4.48-.26.72-.72.72-1.38 0-.69-.26-1.14-.77-1.35a5.58 5.58 0 0 0-2.1-.33h-.7v3.46Zm12.58-7.8c1.32 0 2.33.3 3.02.87.7.56 1.06 1.43 1.06 2.6V23h-1.87l-.52-1.33h-.07c-.42.53-.87.91-1.34 1.15-.46.24-1.1.36-1.92.36-.88 0-1.6-.25-2.18-.76-.58-.51-.86-1.3-.86-2.35s.36-1.82 1.1-2.3a6.2 6.2 0 0 1 3.29-.84l1.7-.05v-.43c0-.52-.13-.9-.4-1.14a1.6 1.6 0 0 0-1.12-.36c-.48 0-.95.08-1.4.22-.46.13-.92.3-1.37.5l-.89-1.81a8.58 8.58 0 0 1 3.76-.88Zm1.42 5.48-1.05.03c-.86.03-1.46.18-1.8.47-.33.29-.5.67-.5 1.13 0 .41.12.7.36.89.24.16.55.25.94.25.57 0 1.06-.17 1.45-.5.4-.35.6-.84.6-1.46v-.81Zm8.1-5.28v3.78h3.74v-3.78h2.68V23h-2.68v-4.05h-3.75V23h-2.68v-9.83h2.68Zm15.67 0h2.95l-3.88 4.72 4.22 5.11H130l-4.01-4.99V23h-2.68v-9.83h2.68v4.77l3.76-4.77Z" fill="#1F1E25"/><path d="M14.5 1H12L1 19.78h3.25l1.5-2.68L14.5 1Z" fill="#2C36F2"/><path d="M2.5 23h21l-9-16.63L13 9.05l4.5 8.05 1.5 2.68H1L2.5 23Z" fill="#2C36F2"/><path d="m19 19.78-1.5-2.68H5.75l-1.5 2.68H19Z" fill="#2C36F2"/><path d="m23.5 23 1.5-3.22L14.5 1 5.75 17.1H8.5L13 9.05l1.5-2.68 9 16.63Z" fill="#2C36F2"/><path d="M13 9.05 8.5 17.1h9L13 9.05Z" fill="#2C36F2"/><path d="M23.5 23h-21L1 19.78M23.5 23l1.5-3.22L14.5 1m9 22-9-16.63L13 9.05M14.5 1H12L1 19.78M14.5 1 5.75 17.1M1 19.78h3.25M13 9.05 8.5 17.1M13 9.05l4.5 8.05m-9 0h9m-9 0H5.75m11.75 0 1.5 2.68H4.25m1.5-2.68-1.5 2.68" stroke="#F6F7FF"/></svg>