<svg width="116" height="19" fill="none" xmlns="http://www.w3.org/2000/svg"><path d="M37.48 16h-2.42V6.6h-2.8a2223.61 2223.61 0 0 0-.67 5.03c-.08.52-.17.99-.25 1.4a7.03 7.03 0 0 1-.56 1.69c-.23.47-.54.83-.95 1.07-.4.25-.91.37-1.55.37-.42 0-.8-.06-1.15-.18V14l.4.11c.14.03.29.05.45.05.3 0 .54-.16.7-.48.17-.33.34-.94.51-1.84a142.02 142.02 0 0 0 1.07-7.26h7.22V16Zm2.88-11.42h2.18v5.52a28.23 28.23 0 0 1-.05 1.87 78.37 78.37 0 0 1-.06 1.28h.04l5.28-8.67h2.9V16h-2.16v-5.49a30.28 30.28 0 0 1 .05-1.95l.05-.83.04-.48h-.06L43.27 16h-2.9V4.58Zm20.39 0v2h-4.8V16h-2.42V4.58h7.22ZM68.37 16l-.83-2.72h-4.16L62.55 16h-2.61l4.03-11.47h2.96L70.98 16h-2.61Zm-2.24-7.4a59.76 59.76 0 0 0-.46-1.54c-.09-.3-.16-.54-.21-.76l-.23.8a49.38 49.38 0 0 1-.43 1.5L64 11.24h2.97l-.83-2.66ZM77 16V4.58h7.22v2h-4.8v2.38h.96c1.08 0 1.96.15 2.64.45.7.3 1.2.7 1.53 1.23.34.52.5 1.12.5 1.8 0 1.12-.38 2-1.14 2.63-.74.62-1.94.93-3.58.93H77Zm3.23-1.98c.74 0 1.32-.12 1.73-.36.43-.23.64-.64.64-1.23 0-.6-.23-1-.69-1.2a4.96 4.96 0 0 0-1.87-.29h-.62v3.08h.81ZM90.6 7.09c1.17 0 2.07.25 2.69.77.63.5.94 1.27.94 2.32V16h-1.66l-.47-1.18h-.06c-.38.47-.77.8-1.19 1.02a3.8 3.8 0 0 1-1.7.32c-.79 0-1.43-.22-1.94-.67-.52-.46-.77-1.16-.77-2.1 0-.93.32-1.6.97-2.05.65-.44 1.63-.69 2.93-.73l1.52-.05v-.38c0-.46-.12-.8-.37-1.01a1.42 1.42 0 0 0-.99-.32c-.42 0-.84.06-1.25.19-.4.12-.8.27-1.21.45l-.79-1.62a6.87 6.87 0 0 1 3.35-.78Zm.33 4.9c-.76.02-1.3.15-1.6.41-.3.26-.44.6-.44 1 0 .37.1.63.32.8.2.14.49.22.83.22.51 0 .94-.15 1.3-.45.35-.31.52-.74.52-1.3v-.72l-.93.03Zm8.12-4.73v3.36h3.33V7.26h2.39V16h-2.39v-3.6h-3.33V16h-2.38V7.26h2.38Zm13.94 0h2.63l-3.46 4.2 3.76 4.54h-2.7l-3.57-4.43V16h-2.39V7.26h2.39v4.24l3.34-4.24Z" fill="#1F1E25"/><path d="M11.13 1H9.25L1 15.51h2.44l1.12-2.07L11.13 1Z" fill="#2C36F2"/><path d="M2.13 18h15.75L11.13 5.15 10 7.22l3.38 6.22 1.12 2.07H1L2.13 18Z" fill="#2C36F2"/><path d="m14.5 15.51-1.13-2.07H4.56L3.44 15.5H14.5Z" fill="#2C36F2"/><path d="M17.88 18 19 15.51 11.12 1 4.57 13.44h2.07L10 7.22l1.13-2.07L17.87 18Z" fill="#2C36F2"/><path d="m10 7.22-3.38 6.22h6.75L10 7.22Z" fill="#2C36F2"/><path d="M17.88 18H2.13L1 15.51M17.88 18 19 15.51 11.12 1m6.76 17L11.13 5.15 10 7.22M11.13 1H9.25L1 15.51M11.13 1 4.55 13.44M1 15.5h2.44M10 7.22l-3.38 6.22M10 7.22l3.38 6.22m-6.76 0h6.75m-6.74 0H4.55m8.82 0 1.12 2.07H3.44m1.12-2.07L3.44 15.5" stroke="#F6F7FF"/></svg>